<svg id="Layer_1" data-name="Layer 1" xmlns="http://www.w3.org/2000/svg" viewBox="0 0 600 370">
  <defs>
    <style>
      .cls-1 {
        fill: #1e272e;
        stroke: #1e272e;
        stroke-miterlimit: 10;
      }

      .cls-2 {
        fill: #ff5e57;
      }

      .cls-3 {
        fill: #ffc048;
      }

      .cls-4 {
        fill: #0be881;
      }

      .cls-5 {
        fill: #2f3640;
      }

      .cls-6 {
        fill: #808e9b;
      }

      .cls-7 {
        fill: #ff9ff3;
      }

      .cls-8 {
        fill: #05c46b;
      }

      .cls-9 {
        fill: #be2edd;
      }

      .cls-10 {
        fill: #5f6970;
      }

      .cls-11 {
        fill: #0fbcf9;
      }

      .cls-12 {
        fill: #4f5860;
      }

      .cls-13 {
        fill: #ff6b81;
      }

      .cls-14 {
        fill: #eccc68;
      }

      .cls-15 {
        fill: #1e2a44;
        opacity: 0.1;
      }
    </style>
  </defs>
  <title>cloudenv</title>
  <rect class="cls-1" width="600" height="370"/>
  <circle class="cls-2" cx="16" cy="16" r="5.5"/>
  <circle class="cls-3" cx="31" cy="16" r="5.5"/>
  <circle class="cls-4" cx="46" cy="16" r="5.5"/>
  <rect class="cls-5" x="10.5" y="33.33" width="91.17" height="324.67"/>
  <rect class="cls-5" x="115.67" y="33.33" width="473.33" height="324.67"/>
  <g>
    <rect class="cls-6" x="25.64" y="67.01" width="11.05" height="6.04" rx="1" ry="1"/>
    <path class="cls-6" d="M29.82,67.94a.35.35,0,0,1,0,.33.58.58,0,0,1-.49.29h-3.1a.63.63,0,0,1-.59-.65V66.6a.63.63,0,0,1,.59-.65l2.31,0c.13,0,.41-.08.47,0Z"/>
  </g>
  <g>
    <rect class="cls-6" x="25.64" y="140.7" width="11.05" height="6.04" rx="1" ry="1"/>
    <path class="cls-6" d="M29.82,141.63a.37.37,0,0,1,0,.34.59.59,0,0,1-.49.28h-3.1a.63.63,0,0,1-.59-.65v-1.3a.63.63,0,0,1,.59-.66l2.31,0c.13,0,.41-.08.47,0Z"/>
  </g>
  <g>
    <rect class="cls-6" x="25.64" y="141.01" width="11.05" height="6.04" rx="1" ry="1"/>
    <path class="cls-6" d="M29.82,141.94a.35.35,0,0,1,0,.33.58.58,0,0,1-.49.29h-3.1a.63.63,0,0,1-.59-.65V140.6a.63.63,0,0,1,.59-.65l2.31,0c.13,0,.41-.08.47,0Z"/>
  </g>
  <g>
    <rect class="cls-6" x="25.64" y="83.96" width="11.05" height="6.04" rx="1" ry="1"/>
    <path class="cls-6" d="M29.82,84.89a.35.35,0,0,1,0,.33.58.58,0,0,1-.49.29h-3.1a.63.63,0,0,1-.59-.65V83.55a.63.63,0,0,1,.59-.65l2.31,0c.13,0,.41-.08.47,0Z"/>
  </g>
  <rect class="cls-6" x="42.58" y="41.62" width="27" height="3.2" rx="1.6" ry="1.6"/>
  <rect class="cls-7" x="292" y="363.19" width="20" height="2" rx="1" ry="1"/>
  <rect class="cls-2" x="145" y="41.81" width="20" height="4.8" rx="1.29" ry="1.29"/>
  <rect class="cls-2" x="145" y="235.48" width="20" height="4.8" rx="1.29" ry="1.29"/>
  <rect class="cls-2" x="155.5" y="127.89" width="31" height="4.8" rx="1.29" ry="1.29"/>
  <rect class="cls-2" x="225.81" y="95.61" width="32" height="4.8" rx="1.29" ry="1.29"/>
  <rect class="cls-8" x="179" y="213.96" width="32" height="4.8" rx="1.29" ry="1.29"/>
  <rect class="cls-2" x="238.81" y="170.92" width="48" height="4.8" rx="1.29" ry="1.29"/>
  <rect class="cls-2" x="270.76" y="106.37" width="32" height="4.8" rx="1.29" ry="1.29"/>
  <rect class="cls-9" x="155" y="84.85" width="20" height="4.8" rx="1.29" ry="1.29"/>
  <rect class="cls-9" x="393" y="138.61" width="35" height="4.8" rx="1.29" ry="1.29"/>
  <rect class="cls-9" x="155.5" y="192.44" width="35" height="4.8" rx="1.29" ry="1.29"/>
  <rect class="cls-9" x="240.31" y="117.13" width="20" height="4.8" rx="1.29" ry="1.29"/>
  <rect class="cls-8" x="178.33" y="63.33" width="20" height="4.8" rx="1.29" ry="1.29"/>
  <rect class="cls-8" x="155.31" y="106.37" width="28" height="4.8" rx="1.29" ry="1.29"/>
  <rect class="cls-8" x="219.33" y="192.44" width="62" height="4.8" rx="1.29" ry="1.29"/>
  <rect class="cls-8" x="268.76" y="138.83" width="38" height="4.8" rx="1.29" ry="1.29"/>
  <rect class="cls-10" x="170.31" y="41.81" width="80" height="4.8" rx="1.29" ry="1.29"/>
  <rect class="cls-10" x="170.31" y="235.48" width="80" height="4.8" rx="1.29" ry="1.29"/>
  <rect class="cls-10" x="155" y="117.13" width="80" height="4.8" rx="1.29" ry="1.29"/>
  <rect class="cls-10" x="178.33" y="84.85" width="80" height="4.8" rx="1.29" ry="1.29"/>
  <rect class="cls-10" x="187.33" y="106.37" width="80" height="4.8" rx="1.29" ry="1.29"/>
  <rect class="cls-10" x="294.65" y="160.16" width="80" height="4.8" rx="1.29" ry="1.29"/>
  <rect class="cls-10" x="155" y="170.92" width="80" height="4.8" rx="1.29" ry="1.29"/>
  <rect class="cls-10" x="155" y="203.2" width="80" height="4.8" rx="1.29" ry="1.29"/>
  <rect class="cls-10" x="309.76" y="138.65" width="80" height="4.8" rx="1.29" ry="1.29"/>
  <rect class="cls-10" x="185.81" y="52.57" width="80" height="4.8" rx="1.29" ry="1.29"/>
  <rect class="cls-10" x="261.43" y="95.61" width="110" height="4.8" rx="1.29" ry="1.29"/>
  <rect class="cls-10" x="180" y="160.16" width="110" height="4.8" rx="1.29" ry="1.29"/>
  <rect class="cls-10" x="311.43" y="117.13" width="110" height="4.8" rx="1.29" ry="1.29"/>
  <rect class="cls-10" x="305.43" y="203.2" width="110" height="4.8" rx="1.29" ry="1.29"/>
  <rect class="cls-10" x="155.31" y="138.65" width="110" height="4.8" rx="1.29" ry="1.29"/>
  <rect class="cls-10" x="145" y="63.33" width="30" height="4.8" rx="1.29" ry="1.29"/>
  <rect class="cls-10" x="201.65" y="63.33" width="43" height="4.8" rx="1.29" ry="1.29"/>
  <rect class="cls-10" x="265.26" y="117.13" width="43" height="4.8" rx="1.29" ry="1.29"/>
  <rect class="cls-10" x="179.15" y="95.61" width="43" height="4.8" rx="1.29" ry="1.29"/>
  <rect class="cls-10" x="291.65" y="170.92" width="43" height="4.8" rx="1.29" ry="1.29"/>
  <rect class="cls-10" x="215" y="213.96" width="43" height="4.8" rx="1.29" ry="1.29"/>
  <rect class="cls-10" x="269.76" y="52.57" width="80" height="4.8" rx="1.29" ry="1.29"/>
  <rect class="cls-10" x="190.76" y="127.89" width="80" height="4.8" rx="1.29" ry="1.29"/>
  <rect class="cls-10" x="145" y="52.57" width="20" height="4.8" rx="1.29" ry="1.29"/>
  <rect class="cls-10" x="431" y="138.61" width="20" height="4.8" rx="1.29" ry="1.29"/>
  <rect class="cls-10" x="374.5" y="95.61" width="20" height="4.8" rx="1.29" ry="1.29"/>
  <rect class="cls-10" x="284.65" y="192.44" width="12" height="4.8" rx="1.29" ry="1.29"/>
  <rect class="cls-10" x="155" y="95.61" width="20" height="4.8" rx="1.29" ry="1.29"/>
  <rect class="cls-10" x="195" y="192.44" width="20" height="4.8" rx="1.29" ry="1.29"/>
  <rect class="cls-10" x="155" y="213.96" width="20" height="4.8" rx="1.29" ry="1.29"/>
  <rect class="cls-11" x="169.31" y="52.57" width="12" height="4.8" rx="1.29" ry="1.29"/>
  <rect class="cls-11" x="305.43" y="106.37" width="12" height="4.8" rx="1.29" ry="1.29"/>
  <rect class="cls-11" x="255.76" y="41.81" width="28" height="4.8" rx="1.29" ry="1.29"/>
  <rect class="cls-11" x="255.76" y="235.48" width="28" height="4.8" rx="1.29" ry="1.29"/>
  <rect class="cls-11" x="261.43" y="84.85" width="28" height="4.8" rx="1.29" ry="1.29"/>
  <rect class="cls-11" x="155.31" y="160.16" width="20" height="4.8" rx="1.29" ry="1.29"/>
  <rect class="cls-11" x="274.43" y="127.89" width="62" height="4.8" rx="1.29" ry="1.29"/>
  <rect class="cls-11" x="239.76" y="203.2" width="62" height="4.8" rx="1.29" ry="1.29"/>
  <rect class="cls-12" x="121.67" y="343.07" width="12" height="4.8" rx="1.29" ry="1.29"/>
  <rect class="cls-12" x="121.67" y="332.31" width="12" height="4.8" rx="1.29" ry="1.29"/>
  <rect class="cls-12" x="121.67" y="235.48" width="12" height="4.8" rx="1.29" ry="1.29"/>
  <rect class="cls-12" x="121.67" y="246.24" width="12" height="4.8" rx="1.29" ry="1.29"/>
  <rect class="cls-12" x="121.67" y="257" width="12" height="4.8" rx="1.29" ry="1.29"/>
  <rect class="cls-12" x="121.67" y="321.55" width="12" height="4.8" rx="1.29" ry="1.29"/>
  <rect class="cls-12" x="121.67" y="267.76" width="12" height="4.8" rx="1.29" ry="1.29"/>
  <rect class="cls-12" x="121.67" y="278.52" width="12" height="4.8" rx="1.29" ry="1.29"/>
  <rect class="cls-12" x="121.67" y="289.28" width="12" height="4.8" rx="1.29" ry="1.29"/>
  <rect class="cls-12" x="121.67" y="300.04" width="12" height="4.8" rx="1.29" ry="1.29"/>
  <rect class="cls-12" x="121.67" y="310.79" width="12" height="4.8" rx="1.29" ry="1.29"/>
  <rect class="cls-12" x="121.67" y="41.81" width="12" height="4.8" rx="1.29" ry="1.29"/>
  <rect class="cls-12" x="121.67" y="52.57" width="12" height="4.8" rx="1.29" ry="1.29"/>
  <rect class="cls-12" x="121.67" y="63.33" width="12" height="4.8" rx="1.29" ry="1.29"/>
  <rect class="cls-12" x="121.67" y="127.89" width="12" height="4.8" rx="1.29" ry="1.29"/>
  <rect class="cls-12" x="121.67" y="74.09" width="12" height="4.8" rx="1.29" ry="1.29"/>
  <rect class="cls-12" x="121.67" y="84.85" width="12" height="4.8" rx="1.29" ry="1.29"/>
  <rect class="cls-12" x="121.67" y="95.61" width="12" height="4.8" rx="1.29" ry="1.29"/>
  <rect class="cls-12" x="121.67" y="106.37" width="12" height="4.8" rx="1.29" ry="1.29"/>
  <rect class="cls-12" x="121.67" y="117.13" width="12" height="4.8" rx="1.29" ry="1.29"/>
  <rect class="cls-12" x="121.67" y="138.65" width="12" height="4.8" rx="1.29" ry="1.29"/>
  <rect class="cls-12" x="121.67" y="149.41" width="12" height="4.8" rx="1.29" ry="1.29"/>
  <rect class="cls-12" x="121.67" y="160.16" width="12" height="4.8" rx="1.29" ry="1.29"/>
  <rect class="cls-12" x="121.67" y="224.72" width="12" height="4.8" rx="1.29" ry="1.29"/>
  <rect class="cls-12" x="121.67" y="170.92" width="12" height="4.8" rx="1.29" ry="1.29"/>
  <rect class="cls-12" x="121.67" y="181.68" width="12" height="4.8" rx="1.29" ry="1.29"/>
  <rect class="cls-12" x="121.67" y="192.44" width="12" height="4.8" rx="1.29" ry="1.29"/>
  <rect class="cls-12" x="121.67" y="203.2" width="12" height="4.8" rx="1.29" ry="1.29"/>
  <rect class="cls-12" x="121.67" y="213.96" width="12" height="4.8" rx="1.29" ry="1.29"/>
  <rect class="cls-10" x="40.5" y="68.74" width="22" height="2.58" rx="1.29" ry="1.29"/>
  <rect class="cls-10" x="40.5" y="85.69" width="22" height="2.58" rx="1.29" ry="1.29"/>
  <rect class="cls-10" x="45.5" y="102.23" width="17" height="2" rx="1" ry="1"/>
  <rect class="cls-10" x="45.58" y="158.28" width="17" height="2.58" rx="1.29" ry="1.29"/>
  <rect class="cls-10" x="45.58" y="170.5" width="17" height="2.58" rx="1.29" ry="1.29"/>
  <rect class="cls-10" x="45.58" y="182.72" width="17" height="2.58" rx="1.29" ry="1.29"/>
  <rect class="cls-10" x="45.5" y="114.21" width="17" height="2.58" rx="1.29" ry="1.29"/>
  <rect class="cls-10" x="45.5" y="126.49" width="17" height="2.58" rx="1.29" ry="1.29"/>
  <rect class="cls-10" x="40.5" y="142.74" width="22" height="2.58" rx="1.29" ry="1.29"/>
  <path class="cls-13" d="M42.81,101.61v4.55a.51.51,0,0,1-.51.51H38.7a.51.51,0,0,1-.51-.51V100.3a.5.5,0,0,1,.51-.5H41Z"/>
  <path class="cls-13" d="M42.81,126.26v4.55a.51.51,0,0,1-.51.51H38.7a.51.51,0,0,1-.51-.51V125a.5.5,0,0,1,.51-.5H41Z"/>
  <path class="cls-14" d="M42.81,157v4.55a.51.51,0,0,1-.51.51H38.7a.51.51,0,0,1-.51-.51v-5.86a.5.5,0,0,1,.51-.5H41Z"/>
  <path class="cls-14" d="M42.81,169.3v4.55a.51.51,0,0,1-.51.51H38.7a.51.51,0,0,1-.51-.51V168a.5.5,0,0,1,.51-.5H41Z"/>
  <path class="cls-14" d="M42.81,181.57v4.55a.51.51,0,0,1-.51.51H38.7a.51.51,0,0,1-.51-.51v-5.86a.5.5,0,0,1,.51-.5H41Z"/>
  <path class="cls-13" d="M42.81,113.93v4.55a.51.51,0,0,1-.51.51H38.7a.51.51,0,0,1-.51-.51v-5.86a.5.5,0,0,1,.51-.5H41Z"/>
  <rect class="cls-15" width="600" height="370"/>
</svg>
