<svg xmlns="http://www.w3.org/2000/svg" viewBox="0 0 246.26 440.8">
  <defs>
    <style>
      .cls-1 {
        fill: #29add8;
      }

      .cls-2 {
        fill: #4bcffa;
      }

      .cls-3 {
        fill: #ffd32a;
      }

      .cls-4 {
        fill: #636e72;
      }

      .cls-5 {
        fill: #2d3436;
      }

      .cls-6 {
        fill: #808e9b;
      }

      .cls-7 {
        fill: #555;
        opacity: 0.05;
      }

      .cls-8 {
        fill: #29add8;
      }

      .cls-11, .cls-9 {
        fill: #eee;
      }

      .cls-10 {
        fill: #ff5e57;
      }

      .cls-11 {
        font-size: 40.3px;
        font-family: AXIS-ExtraBold, AXIS;
        font-weight: 700;
      }

      #disc-svg-top {
        animation: unboxing 9s infinite;
      }

      @keyframes unboxing {
        0% { transform: translateY(0); }
        18% { transform: translateY(0); }
        50% { transform: translateY(26%); }
        75% { transform: translateY(26%); }
        100% { transform: translateY(0); }
      }

    </style>
  </defs>
  <title>disc</title>
  <g id="disc-svg-bottom">
    <g>
      <g>
        <rect class="cls-1" y="16.3" width="246.26" height="324.89" rx="14.87" ry="14.87"/>
        <path class="cls-2" d="M40.13,329.47H92a2.88,2.88,0,0,1,2.88,2.88v3.36A2.88,2.88,0,0,1,92,338.58H40.13a2.87,2.87,0,0,1-2.87-2.87v-3.36a2.88,2.88,0,0,1,2.88-2.88Z"/>
        <rect class="cls-3" x="37.98" y="330.19" width="56.13" height="7.68" rx="2.88" ry="2.88"/>
        <path class="cls-2" d="M103.46,329.47h25.67a2.88,2.88,0,0,1,2.88,2.88v3.36a2.88,2.88,0,0,1-2.87,2.88H103.46a2.87,2.87,0,0,1-2.87-2.87v-3.36A2.88,2.88,0,0,1,103.46,329.47Z"/>
        <rect class="cls-3" x="101.3" y="330.19" width="29.98" height="7.68" rx="2.88" ry="2.88"/>
      </g>
      <g>
        <path class="cls-4" d="M24.41,25.84H221.85a14.87,14.87,0,0,1,14.87,14.87v118.8a0,0,0,0,1,0,0H9.54a0,0,0,0,1,0,0V40.71A14.87,14.87,0,0,1,24.41,25.84Z"/>
        <g>
          <rect class="cls-5" x="176.59" y="39.98" width="45.1" height="45.1" rx="6.33" ry="6.33" transform="translate(398.29 125.06) rotate(-180)"/>
          <rect class="cls-6" x="206.98" y="58.35" width="8.36" height="8.36" transform="translate(422.32 125.06) rotate(-180)"/>
          <rect class="cls-6" x="183.41" y="58.35" width="20.93" height="8.36" transform="translate(387.75 125.06) rotate(-180)"/>
        </g>
        <g>
          <rect class="cls-5" x="24.06" y="39.98" width="65.19" height="45.1" rx="6.33" ry="6.33"/>
          <rect class="cls-6" x="33.24" y="58.35" width="12.09" height="8.36"/>
          <rect class="cls-6" x="49.14" y="58.35" width="30.25" height="8.36"/>
        </g>
        <g>
          <rect class="cls-5" x="100.89" y="39.98" width="65.19" height="45.1" rx="6.33" ry="6.33"/>
          <rect class="cls-6" x="110.08" y="58.35" width="12.09" height="8.36"/>
          <rect class="cls-6" x="125.98" y="58.35" width="30.25" height="8.36"/>
        </g>
        <g>
          <rect class="cls-5" x="175.88" y="98.16" width="45.1" height="45.1" rx="6.33" ry="6.33" transform="translate(396.86 241.42) rotate(-180)"/>
          <rect class="cls-6" x="206.27" y="116.53" width="8.36" height="8.36" transform="translate(420.9 241.42) rotate(-180)"/>
          <rect class="cls-6" x="182.7" y="116.53" width="20.93" height="8.36" transform="translate(386.33 241.42) rotate(-180)"/>
        </g>
        <g>
          <rect class="cls-5" x="23.34" y="98.16" width="65.19" height="45.1" rx="6.33" ry="6.33"/>
          <rect class="cls-6" x="32.53" y="116.53" width="12.09" height="8.36"/>
          <rect class="cls-6" x="48.43" y="116.53" width="30.25" height="8.36"/>
        </g>
        <g>
          <rect class="cls-5" x="100.18" y="98.16" width="65.19" height="45.1" rx="6.33" ry="6.33"/>
          <rect class="cls-6" x="109.36" y="116.53" width="12.09" height="8.36"/>
          <rect class="cls-6" x="125.26" y="116.53" width="30.25" height="8.36"/>
        </g>
        <g>
          <path class="cls-3" d="M32.53,92.16h0a1.5,1.5,0,0,1,1.5,1.5v4.5a0,0,0,0,1,0,0H31a0,0,0,0,1,0,0v-4.5A1.5,1.5,0,0,1,32.53,92.16Z"/>
          <path class="cls-3" d="M37.07,92.16h0a1.5,1.5,0,0,1,1.5,1.5v4.5a0,0,0,0,1,0,0h-3a0,0,0,0,1,0,0v-4.5A1.5,1.5,0,0,1,37.07,92.16Z"/>
          <path class="cls-3" d="M41.61,92.16h0a1.5,1.5,0,0,1,1.5,1.5v4.5a0,0,0,0,1,0,0h-3a0,0,0,0,1,0,0v-4.5A1.5,1.5,0,0,1,41.61,92.16Z"/>
          <path class="cls-3" d="M46.15,92.16h0a1.5,1.5,0,0,1,1.5,1.5v4.5a0,0,0,0,1,0,0h-3a0,0,0,0,1,0,0v-4.5A1.5,1.5,0,0,1,46.15,92.16Z"/>
          <path class="cls-3" d="M50.7,92.16h0a1.5,1.5,0,0,1,1.5,1.5v4.5a0,0,0,0,1,0,0h-3a0,0,0,0,1,0,0v-4.5A1.5,1.5,0,0,1,50.7,92.16Z"/>
          <path class="cls-3" d="M55.24,92.16h0a1.5,1.5,0,0,1,1.5,1.5v4.5a0,0,0,0,1,0,0h-3a0,0,0,0,1,0,0v-4.5A1.5,1.5,0,0,1,55.24,92.16Z"/>
          <path class="cls-3" d="M59.78,92.16h0a1.5,1.5,0,0,1,1.5,1.5v4.5a0,0,0,0,1,0,0h-3a0,0,0,0,1,0,0v-4.5a1.5,1.5,0,0,1,1.5-1.5Z"/>
          <path class="cls-3" d="M64.33,92.16h0a1.5,1.5,0,0,1,1.5,1.5v4.5a0,0,0,0,1,0,0h-3a0,0,0,0,1,0,0v-4.5a1.5,1.5,0,0,1,1.5-1.5Z"/>
          <path class="cls-3" d="M68.87,92.16h0a1.5,1.5,0,0,1,1.5,1.5v4.5a0,0,0,0,1,0,0h-3a0,0,0,0,1,0,0v-4.5A1.5,1.5,0,0,1,68.87,92.16Z"/>
          <path class="cls-3" d="M73.41,92.16h0a1.5,1.5,0,0,1,1.5,1.5v4.5a0,0,0,0,1,0,0h-3a0,0,0,0,1,0,0v-4.5A1.5,1.5,0,0,1,73.41,92.16Z"/>
          <path class="cls-3" d="M78,92.16h0a1.5,1.5,0,0,1,1.5,1.5v4.5a0,0,0,0,1,0,0h-3a0,0,0,0,1,0,0v-4.5A1.5,1.5,0,0,1,78,92.16Z"/>
        </g>
        <g>
          <path class="cls-3" d="M32.53,34h0a1.5,1.5,0,0,1,1.5,1.5V40a0,0,0,0,1,0,0H31a0,0,0,0,1,0,0v-4.5A1.5,1.5,0,0,1,32.53,34Z"/>
          <path class="cls-3" d="M37.07,34h0a1.5,1.5,0,0,1,1.5,1.5V40a0,0,0,0,1,0,0h-3a0,0,0,0,1,0,0v-4.5A1.5,1.5,0,0,1,37.07,34Z"/>
          <path class="cls-3" d="M41.61,34h0a1.5,1.5,0,0,1,1.5,1.5V40a0,0,0,0,1,0,0h-3a0,0,0,0,1,0,0v-4.5A1.5,1.5,0,0,1,41.61,34Z"/>
          <path class="cls-3" d="M46.15,34h0a1.5,1.5,0,0,1,1.5,1.5V40a0,0,0,0,1,0,0h-3a0,0,0,0,1,0,0v-4.5A1.5,1.5,0,0,1,46.15,34Z"/>
          <path class="cls-3" d="M50.7,34h0a1.5,1.5,0,0,1,1.5,1.5V40a0,0,0,0,1,0,0h-3a0,0,0,0,1,0,0v-4.5A1.5,1.5,0,0,1,50.7,34Z"/>
          <path class="cls-3" d="M55.24,34h0a1.5,1.5,0,0,1,1.5,1.5V40a0,0,0,0,1,0,0h-3a0,0,0,0,1,0,0v-4.5A1.5,1.5,0,0,1,55.24,34Z"/>
          <path class="cls-3" d="M59.78,34h0a1.5,1.5,0,0,1,1.5,1.5V40a0,0,0,0,1,0,0h-3a0,0,0,0,1,0,0v-4.5A1.5,1.5,0,0,1,59.78,34Z"/>
          <path class="cls-3" d="M64.33,34h0a1.5,1.5,0,0,1,1.5,1.5V40a0,0,0,0,1,0,0h-3a0,0,0,0,1,0,0v-4.5a1.5,1.5,0,0,1,1.5-1.5Z"/>
          <path class="cls-3" d="M68.87,34h0a1.5,1.5,0,0,1,1.5,1.5V40a0,0,0,0,1,0,0h-3a0,0,0,0,1,0,0v-4.5a1.5,1.5,0,0,1,1.5-1.5Z"/>
          <path class="cls-3" d="M73.41,34h0a1.5,1.5,0,0,1,1.5,1.5V40a0,0,0,0,1,0,0h-3a0,0,0,0,1,0,0v-4.5A1.5,1.5,0,0,1,73.41,34Z"/>
          <path class="cls-3" d="M78,34h0a1.5,1.5,0,0,1,1.5,1.5V40a0,0,0,0,1,0,0h-3a0,0,0,0,1,0,0v-4.5A1.5,1.5,0,0,1,78,34Z"/>
        </g>
        <g>
          <path class="cls-3" d="M110.06,34h0a1.5,1.5,0,0,1,1.5,1.5V40a0,0,0,0,1,0,0h-3a0,0,0,0,1,0,0v-4.5A1.5,1.5,0,0,1,110.06,34Z"/>
          <path class="cls-3" d="M114.6,34h0a1.5,1.5,0,0,1,1.5,1.5V40a0,0,0,0,1,0,0h-3a0,0,0,0,1,0,0v-4.5A1.5,1.5,0,0,1,114.6,34Z"/>
          <path class="cls-3" d="M119.15,34h0a1.5,1.5,0,0,1,1.5,1.5V40a0,0,0,0,1,0,0h-3a0,0,0,0,1,0,0v-4.5A1.5,1.5,0,0,1,119.15,34Z"/>
          <path class="cls-3" d="M123.69,34h0a1.5,1.5,0,0,1,1.5,1.5V40a0,0,0,0,1,0,0h-3a0,0,0,0,1,0,0v-4.5a1.5,1.5,0,0,1,1.5-1.5Z"/>
          <path class="cls-3" d="M128.23,34h0a1.5,1.5,0,0,1,1.5,1.5V40a0,0,0,0,1,0,0h-3a0,0,0,0,1,0,0v-4.5A1.5,1.5,0,0,1,128.23,34Z"/>
          <path class="cls-3" d="M132.78,34h0a1.5,1.5,0,0,1,1.5,1.5V40a0,0,0,0,1,0,0h-3a0,0,0,0,1,0,0v-4.5a1.5,1.5,0,0,1,1.5-1.5Z"/>
          <path class="cls-3" d="M137.32,34h0a1.5,1.5,0,0,1,1.5,1.5V40a0,0,0,0,1,0,0h-3a0,0,0,0,1,0,0v-4.5A1.5,1.5,0,0,1,137.32,34Z"/>
          <path class="cls-3" d="M141.86,34h0a1.5,1.5,0,0,1,1.5,1.5V40a0,0,0,0,1,0,0h-3a0,0,0,0,1,0,0v-4.5A1.5,1.5,0,0,1,141.86,34Z"/>
          <path class="cls-3" d="M146.4,34h0a1.5,1.5,0,0,1,1.5,1.5V40a0,0,0,0,1,0,0h-3a0,0,0,0,1,0,0v-4.5A1.5,1.5,0,0,1,146.4,34Z"/>
          <path class="cls-3" d="M150.95,34h0a1.5,1.5,0,0,1,1.5,1.5V40a0,0,0,0,1,0,0h-3a0,0,0,0,1,0,0v-4.5a1.5,1.5,0,0,1,1.5-1.5Z"/>
          <path class="cls-3" d="M155.49,34h0a1.5,1.5,0,0,1,1.5,1.5V40a0,0,0,0,1,0,0h-3a0,0,0,0,1,0,0v-4.5A1.5,1.5,0,0,1,155.49,34Z"/>
        </g>
        <g>
          <path class="cls-3" d="M110.06,92.16h0a1.5,1.5,0,0,1,1.5,1.5v4.5a0,0,0,0,1,0,0h-3a0,0,0,0,1,0,0v-4.5A1.5,1.5,0,0,1,110.06,92.16Z"/>
          <path class="cls-3" d="M114.6,92.16h0a1.5,1.5,0,0,1,1.5,1.5v4.5a0,0,0,0,1,0,0h-3a0,0,0,0,1,0,0v-4.5A1.5,1.5,0,0,1,114.6,92.16Z"/>
          <path class="cls-3" d="M119.15,92.16h0a1.5,1.5,0,0,1,1.5,1.5v4.5a0,0,0,0,1,0,0h-3a0,0,0,0,1,0,0v-4.5A1.5,1.5,0,0,1,119.15,92.16Z"/>
          <path class="cls-3" d="M123.69,92.16h0a1.5,1.5,0,0,1,1.5,1.5v4.5a0,0,0,0,1,0,0h-3a0,0,0,0,1,0,0v-4.5A1.5,1.5,0,0,1,123.69,92.16Z"/>
          <path class="cls-3" d="M128.23,92.16h0a1.5,1.5,0,0,1,1.5,1.5v4.5a0,0,0,0,1,0,0h-3a0,0,0,0,1,0,0v-4.5A1.5,1.5,0,0,1,128.23,92.16Z"/>
          <path class="cls-3" d="M132.78,92.16h0a1.5,1.5,0,0,1,1.5,1.5v4.5a0,0,0,0,1,0,0h-3a0,0,0,0,1,0,0v-4.5A1.5,1.5,0,0,1,132.78,92.16Z"/>
          <path class="cls-3" d="M137.32,92.16h0a1.5,1.5,0,0,1,1.5,1.5v4.5a0,0,0,0,1,0,0h-3a0,0,0,0,1,0,0v-4.5A1.5,1.5,0,0,1,137.32,92.16Z"/>
          <path class="cls-3" d="M141.86,92.16h0a1.5,1.5,0,0,1,1.5,1.5v4.5a0,0,0,0,1,0,0h-3a0,0,0,0,1,0,0v-4.5A1.5,1.5,0,0,1,141.86,92.16Z"/>
          <path class="cls-3" d="M146.4,92.16h0a1.5,1.5,0,0,1,1.5,1.5v4.5a0,0,0,0,1,0,0h-3a0,0,0,0,1,0,0v-4.5A1.5,1.5,0,0,1,146.4,92.16Z"/>
          <path class="cls-3" d="M150.95,92.16h0a1.5,1.5,0,0,1,1.5,1.5v4.5a0,0,0,0,1,0,0h-3a0,0,0,0,1,0,0v-4.5a1.5,1.5,0,0,1,1.5-1.5Z"/>
          <path class="cls-3" d="M155.49,92.16h0a1.5,1.5,0,0,1,1.5,1.5v4.5a0,0,0,0,1,0,0h-3a0,0,0,0,1,0,0v-4.5a1.5,1.5,0,0,1,1.5-1.5Z"/>
        </g>
        <g>
          <path class="cls-3" d="M184.8,92.16h0a1.5,1.5,0,0,1,1.5,1.5v4.5a0,0,0,0,1,0,0h-3a0,0,0,0,1,0,0v-4.5A1.5,1.5,0,0,1,184.8,92.16Z"/>
          <path class="cls-3" d="M189.35,92.16h0a1.5,1.5,0,0,1,1.5,1.5v4.5a0,0,0,0,1,0,0h-3a0,0,0,0,1,0,0v-4.5A1.5,1.5,0,0,1,189.35,92.16Z"/>
          <path class="cls-3" d="M193.89,92.16h0a1.5,1.5,0,0,1,1.5,1.5v4.5a0,0,0,0,1,0,0h-3a0,0,0,0,1,0,0v-4.5A1.5,1.5,0,0,1,193.89,92.16Z"/>
          <path class="cls-3" d="M198.43,92.16h0a1.5,1.5,0,0,1,1.5,1.5v4.5a0,0,0,0,1,0,0h-3a0,0,0,0,1,0,0v-4.5a1.5,1.5,0,0,1,1.5-1.5Z"/>
          <path class="cls-3" d="M203,92.16h0a1.5,1.5,0,0,1,1.5,1.5v4.5a0,0,0,0,1,0,0h-3a0,0,0,0,1,0,0v-4.5A1.5,1.5,0,0,1,203,92.16Z"/>
          <path class="cls-3" d="M207.52,92.16h0a1.5,1.5,0,0,1,1.5,1.5v4.5a0,0,0,0,1,0,0h-3a0,0,0,0,1,0,0v-4.5A1.5,1.5,0,0,1,207.52,92.16Z"/>
          <path class="cls-3" d="M212.06,92.16h0a1.5,1.5,0,0,1,1.5,1.5v4.5a0,0,0,0,1,0,0h-3a0,0,0,0,1,0,0v-4.5A1.5,1.5,0,0,1,212.06,92.16Z"/>
        </g>
        <g>
          <path class="cls-3" d="M184.8,34h0a1.5,1.5,0,0,1,1.5,1.5V40a0,0,0,0,1,0,0h-3a0,0,0,0,1,0,0v-4.5a1.5,1.5,0,0,1,1.5-1.5Z"/>
          <path class="cls-3" d="M189.35,34h0a1.5,1.5,0,0,1,1.5,1.5V40a0,0,0,0,1,0,0h-3a0,0,0,0,1,0,0v-4.5A1.5,1.5,0,0,1,189.35,34Z"/>
          <path class="cls-3" d="M193.89,34h0a1.5,1.5,0,0,1,1.5,1.5V40a0,0,0,0,1,0,0h-3a0,0,0,0,1,0,0v-4.5a1.5,1.5,0,0,1,1.5-1.5Z"/>
          <path class="cls-3" d="M198.43,34h0a1.5,1.5,0,0,1,1.5,1.5V40a0,0,0,0,1,0,0h-3a0,0,0,0,1,0,0v-4.5A1.5,1.5,0,0,1,198.43,34Z"/>
          <path class="cls-3" d="M203,34h0a1.5,1.5,0,0,1,1.5,1.5V40a0,0,0,0,1,0,0h-3a0,0,0,0,1,0,0v-4.5A1.5,1.5,0,0,1,203,34Z"/>
          <path class="cls-3" d="M207.52,34h0a1.5,1.5,0,0,1,1.5,1.5V40a0,0,0,0,1,0,0h-3a0,0,0,0,1,0,0v-4.5a1.5,1.5,0,0,1,1.5-1.5Z"/>
          <path class="cls-3" d="M212.06,34h0a1.5,1.5,0,0,1,1.5,1.5V40a0,0,0,0,1,0,0h-3a0,0,0,0,1,0,0v-4.5A1.5,1.5,0,0,1,212.06,34Z"/>
        </g>
      </g>
    </g>
  </g>
  <g id="disc-svg-top">
    <g>
      <rect class="cls-2" width="246.26" height="324.89" rx="14.87" ry="14.87"/>
      <path class="cls-7" d="M246.26,14.27S78.83,92.37,0,310.63V14.27S1.34,0,14.26,0H232S246.26-.45,246.26,14.27Z"/>
      <circle class="cls-8" cx="26.2" cy="25.98" r="8.66"/>
      <circle class="cls-8" cx="219.08" cy="25.98" r="8.66"/>
      <circle class="cls-8" cx="26.2" cy="301.22" r="8.66"/>
      <circle class="cls-8" cx="219.08" cy="301.22" r="8.66"/>
      <rect class="cls-9" x="44.68" y="58.95" width="156.89" height="206.99" rx="14.87" ry="14.87"/>
      <path class="cls-10" d="M59.55,59H186.71a14.87,14.87,0,0,1,14.87,14.87V123a0,0,0,0,1,0,0H44.68a0,0,0,0,1,0,0V73.82A14.87,14.87,0,0,1,59.55,59Z"/>
      <text class="cls-11" transform="translate(80.91 106.73)">SSD</text>
      <rect class="cls-6" x="73.72" y="152.82" width="23.99" height="23.99"/>
      <rect class="cls-6" x="105.13" y="152.82" width="67.42" height="23.99"/>
      <rect class="cls-6" x="73.72" y="184.07" width="98.82" height="11.99"/>
    </g>
  </g>
</svg>
