<svg id="Warstwa_1" data-name="Warstwa 1" xmlns="http://www.w3.org/2000/svg" viewBox="0 0 502.08 77.33">
  <defs>
    <style>
      .cls-1 {
        fill: #E0D5BB;
      }
    </style>
  </defs>
  <title>loremcloud-logo</title>
  <g>
    <path class="cls-1" d="M0,49.84A27.46,27.46,0,0,0,27.43,77.33H61.52L23.32,22.66A27.48,27.48,0,0,0,0,49.84Z"/>
    <path class="cls-1" d="M31.35,21.72,70.22,77.33H99.76L48.62,4.16A38.68,38.68,0,0,0,31.35,21.72Z"/>
    <path class="cls-1" d="M107.83,30.64a22.66,22.66,0,0,0-4,.35A38.58,38.58,0,0,0,55.44,1.48l53,75.84a23.34,23.34,0,0,0-.61-46.68Z"/>
    <path class="cls-1" d="M485.94,0H467.11A16,16,0,0,0,459,2.17,16,16,0,0,0,451,0H432.14A16.14,16.14,0,0,0,416,16.14h0V69a8.25,8.25,0,0,0,7.92,8.34,8.07,8.07,0,0,0,8.22-8.07V21.83a5.7,5.7,0,0,1,5.7-5.69h7.44A5.69,5.69,0,0,1,451,21.83V69a8.25,8.25,0,0,0,7.92,8.34,8.07,8.07,0,0,0,8.22-8.07V21.83a5.69,5.69,0,0,1,5.69-5.69h7.44a5.7,5.7,0,0,1,5.7,5.69V69a8.24,8.24,0,0,0,7.92,8.34,8.07,8.07,0,0,0,8.22-8.07V16.14h0A16.14,16.14,0,0,0,485.94,0Z"/>
    <path class="cls-1" d="M190.38,61.19H160.79V8.07A8.07,8.07,0,0,0,152.72,0h0a8.07,8.07,0,0,0-8.07,8.07V69.26h0a8.07,8.07,0,0,0,8.07,8.07h37.66a8.07,8.07,0,0,0,0-16.14Z"/>
    <path class="cls-1" d="M396.44,0H358.79a8.07,8.07,0,0,0-8.07,8.07h0V69.26h0a8.07,8.07,0,0,0,8.07,8.07h37.65a8.07,8.07,0,0,0,0-16.14H366.85V46.74h29.59a8.07,8.07,0,0,0,0-16.14H366.85V16.14h29.59a8.07,8.07,0,0,0,8.07-8.07h0A8.07,8.07,0,0,0,396.44,0Z"/>
    <path class="cls-1" d="M328.31,45.58a16.14,16.14,0,0,0,10.15-15V16.14h0A16.14,16.14,0,0,0,322.32,0H294.66a8.07,8.07,0,0,0-8.07,8.07h0V30.6h0V46.74h0V69.26a8.07,8.07,0,0,0,8.07,8.07h0a8.07,8.07,0,0,0,8.07-8.07V46.74h8.2L323.6,72.81a8.07,8.07,0,0,0,14.49-7.09Zm-6-16.74a1.76,1.76,0,0,1-1.76,1.76H304.49a1.76,1.76,0,0,1-1.76-1.76V17.9a1.76,1.76,0,0,1,1.76-1.76h16.07a1.76,1.76,0,0,1,1.76,1.76Z"/>
    <path class="cls-1" d="M237.11,0a38.67,38.67,0,1,0,38.66,38.67A38.67,38.67,0,0,0,237.11,0Zm0,61.76A23.09,23.09,0,1,1,260.2,38.67,23.09,23.09,0,0,1,237.11,61.76Z"/>
  </g>
</svg>
