<svg id="Warstwa_1" data-name="Warstwa 1" xmlns="http://www.w3.org/2000/svg" viewBox="0 0 330.85 401.82">
  <defs>
    <style>
      .cls-1, .cls-8 {
        fill: #f2f2f2;
      }

      .cls-2, .cls-4 {
        fill: #1e2a44;
      }

      .cls-3 {
        fill: #c7ecee;
      }

      .cls-4, .cls-8 {
        opacity: 0.08;
      }

      .cls-5 {
        fill: #e6105b;
      }

      .cls-6 {
        fill: #80f;
      }

      .cls-7 {
        fill: #00e159;
      }

  :root {
  --pink:#e6105b;
  --purple: #8800ff;
  --green: #00e159;
  }
  .one { animation: offline-1 1.5s infinite; }
  .two { animation: offline-2 1.5s infinite; }
  .three-1 { animation: online-1 1.5s infinite; }
  .four { animation: offline-3 1.5s infinite; }
  .five-1 { animation: online-2 1.5s infinite; }

  @keyframes offline-1 {
      0% {fill: var(--pink);}
      25% {fill: var(--purple);}
      50% {fill: var(--purple);}
      75% {fill: var(--purple);}
      100% {fill: var(--purple);}
  }

  @keyframes offline-2 {
      0% {fill: var(--purple);}
      25% {fill: var(--purple);}
      50% {fill: var(--purple);}
      75% {fill: var(--pink);}
      100% {fill: var(--purple);}
  }

  @keyframes offline-3 {
      0% {fill: var(--purple);}
      25% {fill: var(--purple);}
      50% {fill: var(--pink);}
      75% {fill: var(--pink);}
      100% {fill: var(--purple);}
  }

  @keyframes online-1 {
      0% {fill: var(--pink);}
      25% {fill: var(--pink);}
      50% {fill: var(--green);}
      75% {fill: var(--pink);}
      100% {fill: var(--pink);}
  }

  @keyframes online-2 {
      0% {fill: var(--pink);}
      25% {fill: var(--pink);}
      50% {fill: var(--pink);}
      75% {fill: var(--green);}
      100% {fill: var(--pink);}
  }
    </style>
  </defs>
  <title>server</title>
  <path class="cls-1" d="M315,400.34,48.64,385.54A15,15,0,0,1,35,374.77L10,289.82A15,15,0,0,1,20.2,271.14l236.14-69.55a15.05,15.05,0,0,1,18.56,9.77l55.2,169.29A15,15,0,0,1,315,400.34Z"/>
  <path class="cls-2" d="M295,44.83v316a4.24,4.24,0,0,1-4.17,4.31H259.17a4.24,4.24,0,0,1-4.17-4.31V334.09H55v26.69a4.24,4.24,0,0,1-4.17,4.31H19.17A4.24,4.24,0,0,1,15,360.78V44.83Z"/>
  <rect class="cls-3" y="264" width="310" height="50" rx="5.25" ry="5.25"/>
  <path class="cls-4" d="M310,269.25v39.5a5.25,5.25,0,0,1-5.25,5.25H152.14l50-50h102.6A5.25,5.25,0,0,1,310,269.25Z"/>
  <rect class="cls-5" x="10.83" y="277.33" width="8.33" height="23.33" rx="4.17" ry="4.17"/>
  <rect class="cls-6 one" x="25.83" y="277.33" width="8.33" height="23.33" rx="4.17" ry="4.17"/>
  <rect class="cls-6" x="40.83" y="277.33" width="8.33" height="23.33" rx="4.17" ry="4.17"/>
  <rect class="cls-6" x="55.83" y="277.33" width="8.33" height="23.33" rx="4.17" ry="4.17"/>
  <polygon class="cls-4" points="174.74 264 124.75 314 97.88 314 147.88 264 174.74 264"/>
  <polygon class="cls-4" points="113.05 264 63.06 314 36.19 314 86.19 264 113.05 264"/>
  <rect class="cls-3" y="198" width="310" height="50" rx="5.25" ry="5.25"/>
  <path class="cls-4" d="M310,203.25v39.5a5.25,5.25,0,0,1-5.25,5.25H152.14l50-50h102.6A5.25,5.25,0,0,1,310,203.25Z"/>
  <rect class="cls-5" x="10.83" y="211.33" width="8.33" height="23.33" rx="4.17" ry="4.17"/>
  <rect class="cls-6" x="25.83" y="211.33" width="8.33" height="23.33" rx="4.17" ry="4.17"/>
  <rect class="cls-6" x="40.83" y="211.33" width="8.33" height="23.33" rx="4.17" ry="4.17"/>
  <rect class="cls-6 two" x="55.83" y="211.33" width="8.33" height="23.33" rx="4.17" ry="4.17"/>
  <polygon class="cls-4" points="174.74 198 124.75 248 97.88 248 147.88 198 174.74 198"/>
  <polygon class="cls-4" points="113.05 198 63.06 248 36.19 248 86.19 198 113.05 198"/>
  <rect class="cls-3" y="132" width="310" height="50" rx="5.25" ry="5.25"/>
  <path class="cls-4" d="M310,137.25v39.5a5.25,5.25,0,0,1-5.25,5.25H152.14l50-50h102.6A5.25,5.25,0,0,1,310,137.25Z"/>
  <rect class="cls-5 three-1" x="10.83" y="145.33" width="8.33" height="23.33" rx="4.17" ry="4.17"/>
  <rect class="cls-6" x="25.83" y="145.33" width="8.33" height="23.33" rx="4.17" ry="4.17"/>
  <rect class="cls-6 three-2" x="40.83" y="145.33" width="8.33" height="23.33" rx="4.17" ry="4.17"/>
  <rect class="cls-6" x="55.83" y="145.33" width="8.33" height="23.33" rx="4.17" ry="4.17"/>
  <polygon class="cls-4" points="174.74 132 124.75 182 97.88 182 147.88 132 174.74 132"/>
  <polygon class="cls-4" points="113.05 132 63.06 182 36.19 182 86.19 132 113.05 132"/>
  <rect class="cls-3" y="66" width="310" height="50" rx="5.25" ry="5.25"/>
  <path class="cls-4" d="M310,71.25v39.5a5.25,5.25,0,0,1-5.25,5.25H152.14l50-50h102.6A5.25,5.25,0,0,1,310,71.25Z"/>
  <rect class="cls-5" x="10.83" y="79.33" width="8.33" height="23.33" rx="4.17" ry="4.17"/>
  <rect class="cls-6" x="25.83" y="79.33" width="8.33" height="23.33" rx="4.17" ry="4.17"/>
  <rect class="cls-6 four" x="40.83" y="79.33" width="8.33" height="23.33" rx="4.17" ry="4.17"/>
  <rect class="cls-6" x="55.83" y="79.33" width="8.33" height="23.33" rx="4.17" ry="4.17"/>
  <polygon class="cls-4" points="174.74 66 124.75 116 97.88 116 147.88 66 174.74 66"/>
  <polygon class="cls-4" points="113.05 66 63.06 116 36.19 116 86.19 66 113.05 66"/>
  <rect class="cls-3" width="310" height="50" rx="5.25" ry="5.25"/>
  <rect class="cls-5 five-1" x="10.83" y="13.33" width="8.33" height="23.33" rx="4.17" ry="4.17"/>
  <rect class="cls-6 five-2" x="25.83" y="13.33" width="8.33" height="23.33" rx="4.17" ry="4.17"/>
  <rect class="cls-6" x="40.83" y="13.33" width="8.33" height="23.33" rx="4.17" ry="4.17"/>
  <rect class="cls-6" x="55.83" y="13.33" width="8.33" height="23.33" rx="4.17" ry="4.17"/>
  <polygon class="cls-4" points="174.74 0 124.75 50 97.88 50 147.88 0 174.74 0"/>
  <polygon class="cls-4" points="113.05 0 63.06 50 36.19 50 86.19 0 113.05 0"/>
  <circle class="cls-7" cx="290.96" cy="20.83" r="7.5"/>
  <path class="cls-4" d="M310,5.25v39.5A5.25,5.25,0,0,1,304.75,50H152.14l50-50h102.6A5.25,5.25,0,0,1,310,5.25Z"/>
  <g>
    <rect class="cls-3" y="330" width="310" height="12.5" rx="5.25" ry="5.25"/>
    <polygon class="cls-4" points="147.45 330 134.95 342.5 108.08 342.5 120.58 330 147.45 330"/>
    <polygon class="cls-4" points="78.97 330 66.47 342.5 39.6 342.5 52.1 330 78.97 330"/>
    <path class="cls-4" d="M310,335.25v2a5.25,5.25,0,0,1-5.25,5.25H167.5L180,330H304.75A5.25,5.25,0,0,1,310,335.25Z"/>
  </g>
  <g>
    <path class="cls-2" d="M325.77,316.68a87.63,87.63,0,0,1-36,54.75l-13.07,9a5.39,5.39,0,0,1-6.14,0l-5-3.49-8-5.55a86.87,86.87,0,0,1-9.82-7.91c-1.44-1.33-2.84-2.71-4.17-4.13a86.8,86.8,0,0,1-13.13-18.18,87.48,87.48,0,0,1-6-70.26l3.07-9a10.92,10.92,0,0,1,10.35-7.41h71.64a10.95,10.95,0,0,1,10.35,7.41l3.07,9c.79,2.32,1.49,4.65,2.07,7s1.05,4.56,1.42,6.86A87.23,87.23,0,0,1,325.77,316.68Z"/>
    <path class="cls-7" d="M301.72,301.13a4.08,4.08,0,0,0-3.12-1.46h-6.36v-10a18.8,18.8,0,0,0-2-8.4,18.77,18.77,0,0,0-16.66-10.35,18.76,18.76,0,0,0-18.65,18.75v10h-6.36a4.11,4.11,0,0,0-4.1,4.13v28.25a6.56,6.56,0,0,0,6.54,6.58h45.14a6.56,6.56,0,0,0,6.54-6.58V303.8A4.13,4.13,0,0,0,301.72,301.13Zm-33.18,15.71a5.05,5.05,0,1,1,7.63,4.35v2.73a2.58,2.58,0,1,1-5.16,0v-2.73A5,5,0,0,1,268.54,316.84Zm-5.21-17.17V291a10.29,10.29,0,0,1,10.26-10.32,10.18,10.18,0,0,1,7.25,3,9.94,9.94,0,0,1,2.58,4.37,10.11,10.11,0,0,1,.43,2.92v8.63Z"/>
    <path class="cls-8" d="M324.9,278l-81.44,81.44a86.8,86.8,0,0,1-13.13-18.18l5.57-5.57,8.58-8.58,27.39-27.39,11.55-11.55,6.83-6.83,19.66-19.66,5.38-5.38a10.91,10.91,0,0,1,4.47,5.69l3.07,9C323.62,273.27,324.32,275.6,324.9,278Z"/>
    <path class="cls-8" d="M325.77,316.68,314.7,327.74l-44.93,44.94-4.3,4.3-8-5.55a86.87,86.87,0,0,1-9.82-7.91l4.71-4.73,20.18-20.16,30.18-30.2L320,291.09l6.28-6.28A87.23,87.23,0,0,1,325.77,316.68Z"/>
    <path class="cls-8" d="M253.1,254.53l-32.62,32.61A87.2,87.2,0,0,1,224.35,271l3.07-9a10.92,10.92,0,0,1,10.35-7.41Z"/>
  </g>
</svg>